<?xml version="1.0" encoding="UTF-8"?>
<svg width="132px" height="39px" viewBox="0 0 132 39" version="1.1" xmlns="http://www.w3.org/2000/svg" xmlns:xlink="http://www.w3.org/1999/xlink">
    <!-- Generator: Sketch 52.4 (67378) - http://www.bohemiancoding.com/sketch -->
    <title>logo-white</title>
    <desc>Created with Sketch.</desc>
    <g id="Symbols" stroke="none" stroke-width="1" fill="none" fill-rule="evenodd">
        <g id="Nav-White" transform="translate(-150.000000, -20.000000)" fill="#FFFFFF">
            <g id="Logo---White" transform="translate(150.000000, 20.000000)">
                <path d="M3.05529178,37.9226519 L2.09810946,37.9226519 L2.09810946,32.5812327 L0.209383633,32.5812327 L0.209383633,31.7565176 L4.93974448,31.7565176 L4.93974448,32.5812327 L3.05529178,32.5812327 L3.05529178,37.9226519 Z M15.7211501,37.0936637 L15.7211501,37.9226519 L11.8069582,37.9226519 L11.8069582,31.7565176 L15.7211501,31.7565176 L15.7211501,32.5812327 L12.7641405,32.5812327 L12.7641405,34.3844959 L15.5630441,34.3844959 L15.5630441,35.179299 L12.7641405,35.179299 L12.7641405,37.0936637 L15.7211501,37.0936637 Z M25.3958137,38.0252072 C23.6651939,38.0252072 22.5712713,36.8030905 22.5712713,34.8374482 C22.5712713,32.8846253 23.6737402,31.6539624 25.3958137,31.6539624 C26.793129,31.6539624 27.8485934,32.5128626 28.0109726,33.7990763 L27.0623365,33.7990763 C26.8914111,33.0085463 26.2333483,32.4914969 25.3958137,32.4914969 C24.2762523,32.4914969 23.5498193,33.410221 23.5498193,34.8374482 C23.5498193,36.2774948 24.267706,37.1876727 25.4000869,37.1876727 C26.2589871,37.1876727 26.8700454,36.7475397 27.0623365,36.0040142 L28.0152457,36.0040142 C27.7802233,37.2774085 26.8144947,38.0252072 25.3958137,38.0252072 Z M40.04868,37.9226519 L39.0914977,37.9226519 L39.0914977,35.1921184 L35.9251044,35.1921184 L35.9251044,37.9226519 L34.9679221,37.9226519 L34.9679221,31.7565176 L35.9251044,31.7565176 L35.9251044,34.3631302 L39.0914977,34.3631302 L39.0914977,31.7565176 L40.04868,31.7565176 L40.04868,37.9226519 Z M48.2021075,37.9226519 L47.270564,37.9226519 L47.270564,31.7565176 L48.1380104,31.7565176 L51.3343157,36.3031336 L51.3685008,36.3031336 L51.3685008,31.7565176 L52.3000443,31.7565176 L52.3000443,37.9226519 L51.4368709,37.9226519 L48.2405657,33.380309 L48.2021075,33.380309 L48.2021075,37.9226519 Z M62.1926378,31.6539624 C63.965989,31.6539624 65.0812773,32.8803522 65.0812773,34.8417213 C65.0812773,36.8030905 63.965989,38.0252072 62.1926378,38.0252072 C60.4150135,38.0252072 59.3039983,36.8030905 59.3039983,34.8417213 C59.3039983,32.8803522 60.4150135,31.6539624 62.1926378,31.6539624 Z M62.1926378,32.49577 C61.0217987,32.49577 60.2825463,33.4016747 60.2825463,34.8417213 C60.2825463,36.2774948 61.0217987,37.1833995 62.1926378,37.1833995 C63.3634769,37.1833995 64.0984562,36.2774948 64.0984562,34.8417213 C64.0984562,33.4016747 63.3634769,32.49577 62.1926378,32.49577 Z M75.9096874,37.0936637 L75.9096874,37.9226519 L72.0809582,37.9226519 L72.0809582,31.7565176 L73.0381405,31.7565176 L73.0381405,37.0936637 L75.9096874,37.0936637 Z M85.2296808,31.6539624 C87.003032,31.6539624 88.1183203,32.8803522 88.1183203,34.8417213 C88.1183203,36.8030905 87.003032,38.0252072 85.2296808,38.0252072 C83.4520565,38.0252072 82.3410413,36.8030905 82.3410413,34.8417213 C82.3410413,32.8803522 83.4520565,31.6539624 85.2296808,31.6539624 Z M85.2296808,32.49577 C84.0588417,32.49577 83.3195893,33.4016747 83.3195893,34.8417213 C83.3195893,36.2774948 84.0588417,37.1833995 85.2296808,37.1833995 C86.4005199,37.1833995 87.1354992,36.2774948 87.1354992,34.8417213 C87.1354992,33.4016747 86.4005199,32.49577 85.2296808,32.49577 Z M100.429508,35.3587707 C100.429508,37.0295666 99.4424142,38.0252072 97.7716182,38.0252072 C96.0068133,38.0252072 94.8957982,36.7902711 94.8957982,34.8118094 C94.8957982,32.8675328 96.0025402,31.6539624 97.7587988,31.6539624 C99.1304753,31.6539624 100.168847,32.4658581 100.382504,33.6965211 L99.3996828,33.6965211 C99.1689335,32.9316298 98.5664214,32.4914969 97.763072,32.4914969 C96.5836866,32.4914969 95.8743461,33.3546702 95.8743461,34.8032631 C95.8743461,36.2774948 96.6050523,37.1876727 97.7801645,37.1876727 C98.7800782,37.1876727 99.4723261,36.5467023 99.4851455,35.6108857 L99.4851455,35.5040573 L97.891266,35.5040573 L97.891266,34.7306198 L100.429508,34.7306198 L100.429508,35.3587707 Z M108.41201,37.9226519 L107.454828,37.9226519 L107.454828,31.7565176 L108.41201,31.7565176 L108.41201,37.9226519 Z M119.552359,37.0936637 L119.552359,37.9226519 L115.638167,37.9226519 L115.638167,31.7565176 L119.552359,31.7565176 L119.552359,32.5812327 L116.59535,32.5812327 L116.59535,34.3844959 L119.394253,34.3844959 L119.394253,35.179299 L116.59535,35.179299 L116.59535,37.0936637 L119.552359,37.0936637 Z M126.351203,36.2048515 L127.295566,36.2048515 C127.363936,36.8159099 127.957902,37.2175846 128.769798,37.2175846 C129.547508,37.2175846 130.107289,36.8159099 130.107289,36.2646754 C130.107289,35.7860843 129.769711,35.4997842 128.970635,35.30322 L128.171559,35.1109289 C127.039178,34.8374482 126.513582,34.3075794 126.513582,33.4486792 C126.513582,32.3846685 127.440853,31.6539624 128.756978,31.6539624 C130.060284,31.6539624 130.95337,32.3846685 130.983282,33.4486792 L130.051738,33.4486792 C129.996187,32.8333477 129.487684,32.4615849 128.744159,32.4615849 C128.000633,32.4615849 127.49213,32.8376209 127.49213,33.3845822 C127.49213,33.820442 127.816888,34.0768301 128.611692,34.2733943 L129.29112,34.4400466 C130.555968,34.7391661 131.081564,35.2476692 131.081564,36.1493008 C131.081564,37.3030473 130.16284,38.0252072 128.701427,38.0252072 C127.334024,38.0252072 126.411027,37.3201398 126.351203,36.2048515 Z M30.9944751,10.9100552 C30.9944751,9.25700831 31.2861849,7.75956472 31.8696133,6.41767956 C32.4530416,5.0757944 33.2503817,3.92840255 34.2616575,2.97546961 C35.2729332,2.02253667 36.4640815,1.28840037 37.8351381,0.773038674 C39.2061947,0.257676981 40.6696055,1.13686838e-13 42.2254144,1.13686838e-13 C43.8201185,1.13686838e-13 45.3272857,0.257676981 46.7469613,0.773038674 C48.1666369,1.28840037 49.3529234,1.98364203 50.3058564,2.85878453 L46.0468508,7.99292818 C45.6578986,7.48729029 45.1717156,7.10320573 44.5882873,6.84066298 C44.004859,6.57812023 43.3533738,6.44685083 42.6338122,6.44685083 C42.0503838,6.44685083 41.5058589,6.54894926 41.000221,6.75314917 C40.4945831,6.95734909 40.0521566,7.25392071 39.6729282,7.64287293 C39.2936998,8.03182515 38.9971281,8.50342264 38.7832044,9.05767956 C38.5692807,9.61193647 38.4623204,10.2293889 38.4623204,10.9100552 C38.4623204,11.5907216 38.5741425,12.1984504 38.7977901,12.7332597 C39.0214376,13.268069 39.322871,13.7299428 39.7020994,14.118895 C40.0813279,14.5078472 40.5237544,14.8044189 41.0293923,15.0086188 C41.5350302,15.2128187 42.0698314,15.3149171 42.6338122,15.3149171 C43.4311642,15.3149171 44.1166822,15.1496149 44.6903867,14.8190055 C45.2640913,14.4883961 45.7162414,14.0994498 46.0468508,13.6521547 L50.3058564,18.7571271 C49.372371,19.6906124 48.2249792,20.4344724 46.8636464,20.9887293 C45.5023136,21.5429862 43.9562517,21.8201105 42.2254144,21.8201105 C40.6696055,21.8201105 39.2061947,21.5575717 37.8351381,21.0324862 C36.4640815,20.5074007 35.2729332,19.7635407 34.2616575,18.800884 C33.2503817,17.8382272 32.4530416,16.6908354 31.8696133,15.358674 C31.2861849,14.0265127 30.9944751,12.5436546 30.9944751,10.9100552 Z M61.5076243,21.8201105 C59.8934726,21.8201105 58.4884038,21.5964663 57.2923757,21.1491713 C56.0963476,20.7018762 55.0996725,20.0892857 54.3023204,19.3113812 C53.5049684,18.5334768 52.9118251,17.6145909 52.5228729,16.5546961 C52.1339207,15.4948013 51.9394475,14.3522713 51.9394475,13.1270718 L51.9394475,0.583425414 L58.8822099,0.583425414 L58.8822099,12.3686188 C58.8822099,13.3604469 59.1204396,14.1334779 59.5969061,14.6877348 C60.0733725,15.2419917 60.7491669,15.519116 61.6243094,15.519116 C62.4994519,15.519116 63.1752462,15.2419917 63.6517127,14.6877348 C64.1281792,14.1334779 64.3664088,13.3604469 64.3664088,12.3686188 L64.3664088,0.583425414 L71.28,0.583425414 L71.28,13.1270718 C71.28,14.3522713 71.0709413,15.4948013 70.6528177,16.5546961 C70.234694,17.6145909 69.6172417,18.5334768 68.800442,19.3113812 C67.9836423,20.0892857 66.9675199,20.7018762 65.7520442,21.1491713 C64.5365685,21.5964663 63.121776,21.8201105 61.5076243,21.8201105 Z M74.838895,0.583425414 L83.7361326,0.583425414 C84.7474084,0.583425414 85.7538071,0.685523841 86.7553591,0.889723757 C87.7569111,1.09392367 88.6514878,1.45369908 89.439116,1.96906077 C90.2267443,2.48442247 90.863644,3.1748023 91.3498343,4.04022099 C91.8360245,4.90563969 92.079116,5.98982774 92.079116,7.29281768 C92.079116,8.5569124 91.7679589,9.67027143 91.1456354,10.6329282 C90.5233118,11.5955849 89.6287351,12.3394449 88.4618785,12.8645304 L93.7127072,21.2366851 L85.719779,21.2366851 L81.7524862,13.8563536 L81.5482873,13.8563536 L81.5482873,21.2366851 L74.838895,21.2366851 L74.838895,0.583425414 Z M81.4899448,9.30563536 L82.8609945,9.30563536 C83.0943658,9.30563536 83.3520428,9.28618804 83.6340331,9.24729282 C83.9160235,9.2083976 84.1785623,9.12574649 84.4216575,8.99933702 C84.6647526,8.87292754 84.8689494,8.69790167 85.0342541,8.47425414 C85.1995588,8.25060662 85.2822099,7.954035 85.2822099,7.58453039 C85.2822099,7.21502578 85.2141443,6.92331599 85.078011,6.70939227 C84.9418778,6.49546854 84.7668519,6.33502816 84.5529282,6.2280663 C84.3390045,6.12110444 84.1056366,6.05303882 83.8528177,6.0238674 C83.5999987,5.99469599 83.3666309,5.9801105 83.1527072,5.9801105 L81.4899448,5.9801105 L81.4899448,9.30563536 Z M93.2751381,0.583425414 L101.12221,0.583425414 L104.535249,13.360442 L104.651934,13.360442 L107.919116,0.583425414 L115.766188,0.583425414 L108.298343,21.2366851 L100.597127,21.2366851 L93.2751381,0.583425414 Z M117.224751,0.583425414 L131.43116,0.583425414 L131.43116,6.35933702 L123.759116,6.35933702 L123.759116,8.13878453 L130.96442,8.13878453 L130.96442,13.5354696 L123.759116,13.5354696 L123.759116,15.4607735 L131.927072,15.4607735 L131.927072,21.2366851 L117.224751,21.2366851 L117.224751,0.583425414 Z M23.9787845,8.38674033 L27.0125967,8.38674033 C27.0125967,11.1578062 24.766204,13.4041989 21.9951381,13.4041989 L18.961326,13.4041989 C18.961326,10.633133 21.2077187,8.38674033 23.9787845,8.38674033 Z M7.6720442,21.601326 C6.73855887,21.601326 5.85370584,21.4651947 5.01745856,21.1929282 C4.18121129,20.9206616 3.42762766,20.5511626 2.75668508,20.0844199 C2.0857425,19.6176772 1.50718475,19.0634286 1.02099448,18.4216575 C0.534804199,17.7798863 0.19447611,17.0895065 -3.41060513e-13,16.3504972 L5.95093923,14.0751381 C6.02872967,14.3862999 6.16972274,14.6634242 6.37392265,14.9065193 C6.57812257,15.1496145 6.85524687,15.2711602 7.20530387,15.2711602 C7.65259892,15.2711602 7.95403237,15.1204435 8.10961326,14.8190055 C8.26519415,14.5175676 8.34298343,14.133483 8.34298343,13.6667403 L8.34298343,7.33657459 C8.34298343,3.48608193 11.4644245,0.364640884 15.3149171,0.364640884 L15.3149171,13.3750276 C15.3149171,14.308513 15.2128187,15.2614316 15.0086188,16.2338122 C14.8044189,17.2061927 14.4203343,18.0910457 13.8563536,18.8883978 C13.2923729,19.6857498 12.5144801,20.337235 11.5226519,20.8428729 C10.5308238,21.3485108 9.24730069,21.601326 7.6720442,21.601326 Z" id="Logo"></path>
            </g>
        </g>
    </g>
</svg>